# xmcd
#
# Track frame offsets:
# 150
# 46913
# 88944
# 137814
# 179535
# 224319
# 272501
# 304878
# 328004
#
# Disc length: 4627 seconds
#
# Revision: 0
# Processed by: cddbd v1.4PL0 Copyright (c) Steve Scherf et al.
# Submitted via: Audion 3.0.2 (http://www.panic.com/audion/)
#
DISCID=85121109
DTITLE=Dave Eggers - Ein herzzereissendes Werk von umwerfender genialitaet
DYEAR=1900
DGENRE=
TTITLE0=CD_04_Track_01
TTITLE1=CD_04_Track_02
TTITLE2=CD_04_Track_03
TTITLE3=CD_04_Track_04
TTITLE4=CD_04_Track_05
TTITLE5=CD_04_Track_06
TTITLE6=CD_04_Track_07
TTITLE7=CD_04_Track_08
TTITLE8=CD_04_Track_09
EXTD=
EXTT0=
EXTT1=
EXTT2=
EXTT3=
EXTT4=
EXTT5=
EXTT6=
EXTT7=
EXTT8=
PLAYORDER=
